<svg width="11" height="11" viewBox="0 0 11 11" fill="none" xmlns="http://www.w3.org/2000/svg">
<path fill-rule="evenodd" clip-rule="evenodd" d="M0.559998 5.5C0.559998 2.77172 2.77172 0.559998 5.5 0.559998C8.22827 0.559998 10.44 2.77172 10.44 5.5C10.44 8.22827 8.22827 10.44 5.5 10.44C2.77172 10.44 0.559998 8.22827 0.559998 5.5Z" fill="#FFE400"/>
<path fill-rule="evenodd" clip-rule="evenodd" d="M1.41115 5.74671C1.41115 3.42721 3.40619 1.54689 5.86719 1.54689C7.3057 1.54689 8.58475 2.18948 9.39947 3.18655C8.63001 1.92754 7.18781 1.07996 5.53551 1.07996C3.07451 1.07996 1.07947 2.96028 1.07947 5.27978C1.07947 6.24352 1.42413 7.13122 2.00327 7.83996C1.62663 7.22372 1.41115 6.50895 1.41115 5.74671Z" fill="#FFD600"/>
</svg>
